<svg width="543" height="162" viewBox="0 0 543 162" fill="none" xmlns="http://www.w3.org/2000/svg">
<path d="M187.39 0C206.754 0 222.451 15.6976 222.451 35.0615V126.569C222.451 145.933 206.754 161.631 187.39 161.631H35.0625C15.6983 161.631 0 145.933 0 126.569V35.0615C0.000236288 15.6976 15.6985 0 35.0625 0H187.39ZM34.0547 125.439H51.4756V90.958H83.0732V76.3008H51.4756V56.4775H97.5684V125.439H113.668V63.3252L142.742 119.433L171.938 63.5654V125.439H188.396V41.3389H166.05L142.982 86.6328L119.915 41.3389H34.0547V125.439Z" fill="#3B82F6"/>
<path d="M448.728 92.4031C452.043 92.4032 455.174 93.0172 458.12 94.2449C461.067 95.4727 463.584 97.2119 465.671 99.4627L462.479 102.717C460.842 100.834 458.796 99.3814 456.34 98.3582C453.926 97.2942 451.388 96.7616 448.728 96.7615C446.272 96.7615 443.98 97.2118 441.852 98.1121C439.765 99.0125 437.923 100.282 436.326 101.919C434.771 103.515 433.543 105.397 432.643 107.566C431.783 109.694 431.354 112.028 431.354 114.565C431.354 117.062 431.783 119.395 432.643 121.564C433.543 123.733 434.771 125.636 436.326 127.273C437.923 128.869 439.765 130.118 441.852 131.018C443.98 131.919 446.272 132.369 448.728 132.369C451.633 132.369 454.252 131.734 456.585 130.466C458.959 129.197 460.863 127.458 462.295 125.248C463.769 123.038 464.628 120.541 464.873 117.758H449.464V113.583H469.661V115.486C469.661 118.474 469.13 121.257 468.066 123.836C467.002 126.414 465.528 128.665 463.646 130.589C461.763 132.512 459.552 134.027 457.015 135.132C454.477 136.196 451.735 136.727 448.788 136.727C445.678 136.727 442.773 136.154 440.072 135.009C437.411 133.863 435.057 132.287 433.011 130.281C431.006 128.235 429.43 125.882 428.284 123.221C427.138 120.52 426.565 117.635 426.565 114.565C426.565 111.496 427.118 108.631 428.223 105.971C429.369 103.27 430.944 100.916 432.949 98.9109C434.996 96.8646 437.35 95.2679 440.01 94.1219C442.711 92.976 445.617 92.4031 448.728 92.4031ZM282.077 123.59L296.689 93.0779H303.319V136.053H298.837V98.4813L282.016 132.982L265.195 98.5418V136.053H260.775V93.0779H267.405L282.077 123.59ZM347.01 136.053H341.853L336.45 122.546H316.192L310.728 136.053H305.816L323.619 93.0779H329.329L347.01 136.053ZM380.081 127.949V93.0779H384.564V136.053H380.389L353.99 100.262V136.053H349.509V93.0779H354.236L380.081 127.949ZM428.25 136.053H423.093L417.691 122.546H397.432L391.968 136.053H387.057L404.86 93.0779H410.57L428.25 136.053ZM505.274 97.2527H479.244V112.294H496.249V116.407H479.244V131.878H505.52V136.053H474.517V93.0779H505.274V97.2527ZM528.309 93.0779C531.133 93.078 533.589 93.5899 535.676 94.6131C537.763 95.6363 539.38 97.0693 540.526 98.9109C541.712 100.753 542.306 102.921 542.306 105.418C542.306 108.242 541.467 110.677 539.789 112.723C538.152 114.729 535.942 116.141 533.158 116.96L542.797 136.053H537.578L528.37 117.573H514.618V136.053H509.891V93.0779H528.309ZM317.849 118.494H334.793L326.321 97.4373L317.849 118.494ZM399.089 118.494H416.033L407.561 97.4373L399.089 118.494ZM514.618 113.583H528.002C530.908 113.583 533.22 112.846 534.939 111.373C536.699 109.899 537.578 107.914 537.578 105.418C537.578 102.962 536.699 100.998 534.939 99.5242C533.22 98.051 530.908 97.3144 528.002 97.3143H514.618V113.583ZM392.105 30.0223C396.022 30.0223 399.664 30.7255 403.029 32.1317C406.443 33.4876 409.406 35.4215 411.917 37.9324C414.478 40.3932 416.462 43.281 417.868 46.5955C419.275 49.8599 419.978 53.4008 419.978 57.2176C419.978 61.0344 419.275 64.6003 417.868 67.9149C416.462 71.1791 414.478 74.0669 411.917 76.5779C409.406 79.0387 406.443 80.9726 403.029 82.3787C399.664 83.7347 396.022 84.4119 392.105 84.4119C388.188 84.4119 384.547 83.7346 381.182 82.3787C377.817 80.9726 374.854 79.0386 372.293 76.5779C369.782 74.0669 367.797 71.1792 366.341 67.9149C364.935 64.6003 364.233 61.0344 364.233 57.2176C364.233 53.4008 364.935 49.8599 366.341 46.5955C367.797 43.2809 369.782 40.3933 372.293 37.9324C374.854 35.4215 377.817 33.4876 381.182 32.1317C384.547 30.7255 388.188 30.0223 392.105 30.0223ZM434.628 60.8338C434.628 63.5456 435.131 65.9311 436.135 67.9901C437.19 69.9988 438.646 71.5561 440.504 72.6609C442.412 73.7155 444.622 74.242 447.133 74.242C449.644 74.242 451.829 73.7154 453.687 72.6609C455.545 71.5561 456.976 69.9988 457.981 67.9901C459.035 65.9311 459.563 63.5456 459.563 60.8338V30.8514H470.41V60.8338C470.41 65.5544 469.456 69.6979 467.548 73.2635C465.64 76.7788 462.928 79.5159 459.412 81.4744C455.947 83.3828 451.829 84.3367 447.058 84.3367C442.287 84.3367 438.144 83.3828 434.628 81.4744C431.163 79.566 428.476 76.8541 426.568 73.3387C424.659 69.7731 423.705 65.6047 423.705 60.8338V30.8514H434.628V60.8338ZM301.518 40.3436H271.687V52.7733H291.498V61.9637H271.687V83.5838H260.763V30.8514H301.518V40.3436ZM316.785 83.5838H305.863V30.8514H316.785V83.5838ZM366.389 40.494H348.686V83.5838H337.763V40.494H319.985V30.8514H366.389V40.494ZM519.121 40.494H501.418V83.5838H490.495V40.494H472.717V30.8514H519.121V40.494ZM392.105 40.0418C389.744 40.0418 387.56 40.4943 385.551 41.3983C383.542 42.252 381.784 43.4567 380.278 45.0135C378.771 46.52 377.591 48.3282 376.738 50.4373C375.884 52.4964 375.456 54.7318 375.456 57.1424C375.456 59.603 375.884 61.8878 376.738 63.9969C377.591 66.1062 378.771 67.94 380.278 69.4969C381.784 71.0035 383.542 72.2082 385.551 73.1121C387.56 73.9658 389.744 74.3933 392.105 74.3934C394.515 74.3934 396.726 73.9659 398.735 73.1121C400.743 72.2082 402.501 71.0032 404.007 69.4969C405.514 67.94 406.694 66.1062 407.548 63.9969C408.402 61.8877 408.828 59.628 408.828 57.2176C408.828 54.7567 408.402 52.4964 407.548 50.4373C406.694 48.3281 405.514 46.5201 404.007 45.0135C402.501 43.4569 400.743 42.2519 398.735 41.3983C396.726 40.4943 394.515 40.0418 392.105 40.0418ZM531.836 36.3426C536.817 36.3428 540.854 40.3808 540.854 45.3611C540.854 50.3415 536.817 54.3786 531.836 54.3787C526.856 54.3785 522.818 50.3415 522.818 45.3611C522.818 40.3808 526.856 36.3428 531.836 36.3426ZM528.749 49.8611H530.564V46.5057H532.542L534.257 49.8611H536.285L534.345 46.243C534.862 46.0343 535.275 45.7165 535.584 45.2908C535.901 44.8652 536.061 44.3725 536.061 43.8133C536.061 43.2795 535.931 42.808 535.672 42.3992C535.413 41.9905 535.055 41.6723 534.596 41.4471C534.145 41.2135 533.623 41.0965 533.031 41.0965H528.749V49.8611ZM532.867 42.6619C533.276 42.6619 533.602 42.7706 533.844 42.9871C534.094 43.204 534.22 43.4884 534.22 43.8387C534.22 44.1892 534.094 44.4732 533.844 44.6902C533.602 44.9071 533.276 45.0154 532.867 45.0154H530.564V42.6619H532.867Z" fill="black"/>
</svg>
